Patient4_TMGait_0pt2_01_right_23_GRF.mot
version=1
nRows=65
nColumns=19
inDegrees=no
endheader
time	F1x	F1y	F1z	M1x	M1y	M1z	F2x	F2y	F2z	M2x	M2y	M2z	EC1x	EC1y	EC1z	EC2x	EC2y	EC2z
51.63	-12.7441	751.8405	54.0316	-265.2635	-59.0512	780.59	-2.7925	61.6189	-5.8598	23.052	6.498	58.8369	-0.0592	0.0182	-0.0073	-0.0462	0.0165	0.9585
51.6524	-14.1224	784.7249	56.379	-276.6918	-61.3413	813.253	-3.5914	52.4127	-5.2469	19.5935	6.3099	50.016	-0.0592	0.0182	-0.0073	-0.0462	0.0165	0.9585
51.6747	-15.218	818.2583	58.5883	-288.35	-63.2754	846.0638	-4.1979	42.1847	-4.4677	15.7619	5.8627	40.2596	-0.0592	0.0182	-0.0073	-0.0462	0.0165	0.9585
51.6971	-15.674	847.6763	60.3502	-298.5798	-64.4486	874.0736	-4.4096	31.8741	-3.5804	11.9078	5.1359	30.4589	-0.0592	0.0182	-0.0073	-0.0462	0.0165	0.9585
51.7194	-15.1802	868.4762	61.4344	-305.8099	-64.5568	892.6488	-4.1144	22.3825	-2.6722	8.3657	4.1772	21.461	-0.0592	0.0182	-0.0073	-0.0462	0.0165	0.9585
51.7418	-13.5594	877.5537	61.7031	-308.9601	-63.4376	898.6343	-3.3981	14.4156	-1.842	5.3958	3.1198	13.9258	-0.0592	0.0182	-0.0073	-0.0462	0.0165	0.9585
51.7641	-10.7915	874.0004	61.1092	-307.7257	-61.0736	891.1603	-2.5211	8.3315	-1.1673	3.1295	2.1392	8.1889	-0.0592	0.0182	-0.0073	-0.0462	0.0165	0.9585
51.7865	-6.9835	859.3303	59.6947	-302.6551	-57.5758	871.8514	-1.6781	4.0563	-0.67173	1.5375	1.3339	4.1692	-0.0592	0.0182	-0.0073	-0.0462	0.0165	0.9585
51.8089	-2.3433	837.0258	57.5884	-294.9862	-53.1684	844.3478	-0.96838	1.2487	-0.34062	0.48962	0.729	1.5229	-0.0592	0.0182	-0.0073	-0.0462	0.0165	0.9585
51.8312	2.857	811.5832	54.9817	-286.3074	-48.149	813.316	-0.42486	-0.54203	-0.14155	-0.18485	0.30644	-0.19833	-0.0592	0.0182	-0.0073	-0.0462	0.0165	0.9585
51.8536	8.3404	787.3926	52.1032	-278.1585	-42.8429	783.296	-0.038893	-1.7743	-0.036304	-0.65878	0.026265	-1.449	-0.0592	0.0182	-0.0073	-0.0462	0.0165	0.9585
51.8759	13.8745	767.7818	49.195	-271.6922	-37.5674	757.7318	0.22269	-2.8455	0.015613	-1.0816	-0.16085	-2.6223	-0.0592	0.0182	-0.0073	-0.0462	0.0165	0.9585
51.8983	19.2911	754.4705	46.4783	-267.4864	-32.5944	738.4418	0.40548	-4.0437	0.05311	-1.561	-0.30784	-3.9972	-0.0592	0.0182	-0.0073	-0.0462	0.0165	0.9585
51.9206	24.4796	747.5044	44.1279	-265.5264	-28.1265	725.5733	0.55821	-5.5053	0.1081	-2.1466	-0.46267	-5.6928	-0.0592	0.0182	-0.0073	-0.0462	0.0165	0.9585
51.943	29.3822	745.6213	42.2677	-265.3354	-24.2963	717.9724	0.72315	-7.1693	0.204	-2.8119	-0.66249	-7.6223	-0.0592	0.0182	-0.0073	-0.0462	0.0165	0.9585
51.9654	33.9814	746.8599	40.9738	-266.1905	-21.1739	713.7857	0.92823	-8.7233	0.35203	-3.4319	-0.92799	-9.4292	-0.0592	0.0182	-0.0073	-0.0462	0.0165	0.9585
51.9877	38.2817	749.1497	40.2755	-267.3319	-18.7772	711.0454	1.1806	-9.5455	0.54663	-3.7591	-1.2485	-10.421	-0.0592	0.0182	-0.0073	-0.0462	0.0165	0.9585
52.0101	42.2666	750.6657	40.1623	-268.09	-17.0969	708.0367	1.459	-8.6537	0.75841	-3.4025	-1.5708	-9.5066	-0.0592	0.0182	-0.0073	-0.0462	0.0165	0.9585
52.0324	45.8588	749.9183	40.5803	-267.9198	-16.1097	703.3952	1.7036	-4.6788	0.92576	-1.8167	-1.7903	-5.1615	-0.0592	0.0182	-0.0073	-0.0462	0.0165	0.9585
52.0548	48.924	745.659	41.4123	-266.368	-15.7593	696.019	1.806	4.096	0.94792	1.6824	-1.7398	4.5234	-0.0592	0.0182	-0.0073	-0.0462	0.0165	0.9585
52.0771	51.2744	736.6489	42.4745	-262.9901	-15.9491	684.8446	1.6042	19.5744	0.68198	7.8541	-1.1857	21.6705	-0.0592	0.0182	-0.0073	-0.0462	0.0165	0.9585
52.0995	52.6554	721.4872	43.518	-257.2903	-16.5462	668.6754	0.87003	43.5185	-0.057767	17.4005	0.17651	48.2532	-0.0592	0.0182	-0.0073	-0.0462	0.0165	0.9585
52.1219	52.7702	698.7014	44.2377	-248.7569	-17.3796	646.2475	-0.76407	77.0501	-1.4633	30.7674	2.7061	85.5344	-0.0592	0.0182	-0.0073	-0.0462	0.0165	0.9585
52.1442	51.3632	667.1336	44.3167	-237.0004	-18.2467	616.5546	-3.7999	119.927	-3.6407	47.8562	6.7033	133.2636	-0.0592	0.0182	-0.0073	-0.0462	0.0165	0.9585
52.1666	48.3292	626.5425	43.5067	-221.9662	-18.9491	579.3707	-8.3529	169.9654	-6.5842	67.7898	12.1721	189.0182	-0.0592	0.0182	-0.0073	-0.0462	0.0165	0.9585
52.1889	43.8256	578.1743	41.7116	-204.1331	-19.336	535.7489	-13.9557	223.669	-10.2023	89.1571	18.7746	248.8668	-0.0592	0.0182	-0.0073	-0.0462	0.0165	0.9585
52.2113	38.3234	524.8122	39.0151	-184.5295	-19.3065	488.0483	-19.9127	278.0241	-14.1983	110.7399	25.8689	309.3782	-0.0592	0.0182	-0.0073	-0.0462	0.0165	0.9585
52.2336	32.5112	470.0484	35.6334	-164.4741	-18.795	439.2871	-25.603	331.0151	-18.2122	131.722	32.7978	368.2385	-0.0592	0.0182	-0.0073	-0.0462	0.0165	0.9585
52.256	27.0647	417.275	31.8343	-145.2096	-17.7794	392.2908	-30.5724	381.1228	-21.9351	151.4884	39.0423	423.7125	-0.0592	0.0182	-0.0073	-0.0462	0.0165	0.9585
52.2784	22.4551	368.9569	27.8956	-127.6381	-16.3143	349.0986	-34.4877	427.0255	-25.1576	169.5032	44.2478	474.3072	-0.0592	0.0182	-0.0073	-0.0462	0.0165	0.9585
52.3007	18.893	326.3496	24.0726	-112.2195	-14.5299	310.7372	-37.1362	467.5508	-27.7603	185.2937	48.2103	518.7135	-0.0592	0.0182	-0.0073	-0.0462	0.0165	0.9585
52.3231	16.3637	289.6554	20.5707	-99.0262	-12.5989	277.3596	-38.4488	501.9081	-29.7007	198.5462	50.8701	556.0551	-0.0592	0.0182	-0.0073	-0.0462	0.0165	0.9585
52.3454	14.715	258.3994	17.5327	-87.8782	-10.6961	248.5725	-38.4721	529.9821	-31.0224	209.2206	52.3074	586.2029	-0.0592	0.0182	-0.0073	-0.0462	0.0165	0.9585
52.3678	13.731	231.7689	15.0169	-78.4704	-8.9501	223.7189	-37.3377	552.3407	-31.8369	217.5535	52.7124	609.7799	-0.0592	0.0182	-0.0073	-0.0462	0.0165	0.9585
52.3901	13.1936	208.8517	12.9862	-70.4615	-7.4114	202.0663	-35.2401	570.0342	-32.2748	223.9784	52.3231	627.9502	-0.0592	0.0182	-0.0073	-0.0462	0.0165	0.9585
52.4125	12.9027	188.7928	11.352	-63.5315	-6.0842	182.9318	-32.4084	584.3026	-32.4624	229.0096	51.3877	642.1023	-0.0592	0.0182	-0.0073	-0.0462	0.0165	0.9585
52.4349	12.682	170.9352	10.0269	-57.4288	-4.9681	165.8024	-29.0719	596.2689	-32.5059	233.1218	50.1269	653.5093	-0.0592	0.0182	-0.0073	-0.0462	0.0165	0.9585
52.4572	12.393	154.9513	8.9537	-52.0149	-4.0762	150.4452	-25.4362	606.725	-32.4456	236.6689	48.6711	663.097	-0.0592	0.0182	-0.0073	-0.0462	0.0165	0.9585
52.4796	11.9501	140.8982	8.1147	-47.2833	-3.4383	136.9581	-21.6814	616.1112	-32.2359	239.8755	47.0428	671.417	-0.0592	0.0182	-0.0073	-0.0462	0.0165	0.9585
52.5019	11.3229	129.1175	7.5345	-43.3256	-3.1025	125.6782	-17.9742	624.6149	-31.7921	242.8657	45.213	678.746	-0.0592	0.0182	-0.0073	-0.0462	0.0165	0.9585
52.5243	10.523	119.9967	7.271	-40.2547	-3.1303	116.9714	-14.4836	632.2876	-31.0649	245.6925	43.1846	685.2123	-0.0592	0.0182	-0.0073	-0.0462	0.0165	0.9585
52.5466	9.598	113.6711	7.3786	-38.104	-3.5666	110.9555	-11.3928	639.183	-30.0944	248.3791	41.0509	690.9415	-0.0592	0.0182	-0.0073	-0.0462	0.0165	0.9585
52.569	8.5988	109.7551	7.8496	-36.7409	-4.3906	107.2455	-8.8978	645.5183	-29.0276	250.9785	39.0146	696.22	-0.0592	0.0182	-0.0073	-0.0462	0.0165	0.9585
52.5914	7.5338	107.2477	8.5638	-35.8331	-5.4823	104.8654	-7.1856	651.8409	-28.0938	253.651	37.3614	701.6701	-0.0592	0.0182	-0.0073	-0.0462	0.0165	0.9585
52.6137	6.3616	104.7221	9.3186	-34.9102	-6.6552	102.4329	-6.3846	659.1576	-27.5199	256.7328	36.3627	708.382	-0.0592	0.0182	-0.0073	-0.0462	0.0165	0.9585
52.6361	5.0163	100.6903	9.9056	-33.4854	-7.7233	98.5053	-6.5078	668.8075	-27.4638	260.6996	36.1868	717.7611	-0.0592	0.0182	-0.0073	-0.0462	0.0165	0.9585
52.6584	3.4491	94.0498	10.1626	-31.2043	-8.5386	92.0163	-7.4192	681.9727	-28.0094	265.9808	36.8761	730.9935	-0.0592	0.0182	-0.0073	-0.0462	0.0165	0.9585
52.6808	1.6667	84.4637	9.9917	-27.9659	-9.001	82.6454	-8.8707	699.135	-29.1657	272.751	38.3567	748.4906	-0.0592	0.0182	-0.0073	-0.0462	0.0165	0.9585
52.7031	-0.22588	72.3879	9.3655	-23.928	-9.0501	70.8479	-10.5998	719.8661	-30.8503	280.8457	40.4534	769.7047	-0.0592	0.0182	-0.0073	-0.0462	0.0165	0.9585
52.7255	-2.0026	58.8117	8.3235	-19.42	-8.6522	57.5971	-12.3946	742.9043	-32.8931	289.7852	42.913	793.2301	-0.0592	0.0182	-0.0073	-0.0462	0.0165	0.9585
52.7479	-3.357	44.9358	6.9572	-14.8357	-7.7966	44.0622	-14.0953	766.4354	-35.0629	298.8804	45.4315	817.0985	-0.0592	0.0182	-0.0073	-0.0462	0.0165	0.9585
52.7702	-4.0026	31.909	5.3968	-10.5481	-6.5163	31.3637	-15.5647	788.5077	-37.1043	307.3888	47.6828	839.2101	-0.0592	0.0182	-0.0073	-0.0462	0.0165	0.9585
52.7926	-3.8586	20.6664	3.814	-6.8588	-4.9539	20.4109	-16.6714	807.385	-38.7948	314.646	49.3749	857.7077	-0.0592	0.0182	-0.0073	-0.0462	0.0165	0.9585
52.8149	-3.1927	11.8211	2.4033	-3.9613	-3.3867	11.7937	-17.2928	821.7358	-39.9988	320.1337	50.3086	871.1894	-0.0592	0.0182	-0.0073	-0.0462	0.0165	0.9585
52.8373	-2.3406	5.4663	1.2808	-1.8798	-2.0358	5.6009	-17.3173	830.7498	-40.6966	323.526	50.4162	878.8279	-0.0592	0.0182	-0.0073	-0.0462	0.0165	0.9585
52.8596	-1.5174	1.2681	0.4634	-0.50094	-0.98772	1.4999	-16.6685	834.1895	-40.9766	324.7144	49.7683	880.4223	-0.0592	0.0182	-0.0073	-0.0462	0.0165	0.9585
52.882	-0.83606	-1.3031	-0.083905	0.35225	-0.24478	-1.0369	-15.3571	832.3432	-40.9729	323.799	48.5285	876.3389	-0.0592	0.0182	-0.0073	-0.0462	0.0165	0.9585
52.9044	-0.33773	-2.8167	-0.4193	0.86985	0.23614	-2.5746	-13.4684	825.9609	-40.8117	321.0713	46.8904	867.4203	-0.0592	0.0182	-0.0073	-0.0462	0.0165	0.9585
52.9267	-0.017669	-3.7859	-0.60537	1.2219	0.51782	-3.6245	-11.112	816.1854	-40.5844	316.9885	45.0245	854.8943	-0.0592	0.0182	-0.0073	-0.0462	0.0165	0.9585
52.9491	0.15977	-4.6104	-0.70034	1.5382	0.66895	-4.5812	-8.3985	804.3843	-40.3228	312.1073	43.037	840.1941	-0.0592	0.0182	-0.0073	-0.0462	0.0165	0.9585
52.9714	0.24894	-5.5343	-0.75178	1.896	0.75514	-5.6761	-5.4455	791.9158	-40.0017	306.9846	40.9754	824.72	-0.0592	0.0182	-0.0073	-0.0462	0.0165	0.9585
52.9938	0.31642	-6.6116	-0.79406	2.3096	0.83264	-6.9487	-2.3866	779.8988	-39.5862	302.0817	38.8736	809.6201	-0.0592	0.0182	-0.0073	-0.0462	0.0165	0.9585
53.0161	0.43747	-7.6728	-0.84381	2.7152	0.94207	-8.2037	0.63989	769.079	-39.0556	297.7099	36.7739	795.6565	-0.0592	0.0182	-0.0073	-0.0462	0.0165	0.9585
53.0385	0.6898	-8.2887	-0.89721	2.955	1.1052	-8.9577	3.5109	759.8061	-38.4042	294.0198	34.7219	783.1857	-0.0592	0.0182	-0.0073	-0.0462	0.0165	0.9585
53.0609	1.1497	-7.733	-0.92847	2.7645	1.3218	-8.3945	6.1386	752.0366	-37.6509	291.0021	32.7698	772.1714	-0.0592	0.0182	-0.0073	-0.0462	0.0165	0.9585
